<svg width="311" height="175" viewBox="0 0 311 175" fill="none" xmlns="http://www.w3.org/2000/svg">
<path d="M133 73.9577L82.8764 8.23969C78.7354 2.80414 72.6242 0.0360375 66.5 0C60.3758 0.0360375 54.2645 2.80414 50.1236 8.23969L0 73.9577L26.6 107.575H106.4L133 73.9577Z" fill="#89A2B6"/>
<path d="M66.8358 175C85.3848 175 100.422 159.949 100.422 141.383C100.422 122.817 85.3848 107.766 66.8358 107.766C48.2869 107.766 33.25 122.817 33.25 141.383C33.25 159.949 48.2869 175 66.8358 175Z" fill="#C26B2A"/>
<g clip-path="url(#clip0_6_20634)">
<g clip-path="url(#clip1_6_20634)">
<path d="M30.67 80.3516C30.343 81.1403 30.1424 81.9959 30.1127 82.9037H30.1052C29.9566 86.996 33.1746 90.441 37.2695 90.5972C41.3569 90.746 44.8053 87.5243 44.9614 83.432C44.9985 82.3456 44.7905 81.304 44.404 80.3516H52.4006C52.3932 88.5734 45.7417 95.2327 37.5296 95.2327C29.3175 95.2327 22.666 88.5734 22.666 80.3516H30.67Z" fill="white"/>
<path d="M37.2688 90.5972C33.1739 90.4409 29.956 86.9959 30.1046 82.8962H30.112C30.1417 82.0033 30.3424 81.1476 30.6694 80.3589H44.4033C44.7898 81.3039 44.9979 82.3456 44.9607 83.4393C44.8047 87.5317 41.3563 90.7534 37.2688 90.6046V90.5972Z" fill="#292924"/>
<path d="M67.9904 80.3516C67.6634 81.1403 67.4627 81.9959 67.433 82.9037H67.4256C67.277 86.996 70.4949 90.441 74.5898 90.5972C78.6773 90.746 82.1256 87.5243 82.2817 83.432C82.3188 82.3456 82.1108 81.304 81.7243 80.3516H89.7209C89.7135 88.5734 83.062 95.2327 74.8499 95.2327C66.6378 95.2327 59.9863 88.5734 59.9863 80.3516H67.9904Z" fill="white"/>
<path d="M74.5891 90.5972C70.4942 90.4409 67.2763 86.9959 67.4249 82.8962H67.4323C67.462 82.0033 67.6627 81.1476 67.9897 80.3589H81.7236C82.1101 81.3039 82.3182 82.3456 82.281 83.4393C82.125 87.5317 78.6766 90.7534 74.5891 90.6046V90.5972Z" fill="#292924"/>
</g>
</g>
<defs>
<clipPath id="clip0_6_20634">
<rect width="85.9435" height="28.3594" fill="white" transform="translate(22.666 69.0078)"/>
</clipPath>
<clipPath id="clip1_6_20634">
<rect width="67.0548" height="28.3594" fill="white" transform="translate(22.666 73.7344)"/>
</clipPath>
</defs>
</svg>
