<svg preserveAspectRatio="none" width="100%" height="100%" overflow="visible" style="display: block;" viewBox="0 0 44.2612 34.0581" fill="none" xmlns="http://www.w3.org/2000/svg">
<g id="Rectangle 3209">
<path d="M26.6295 11.3741C27.2156 11.2124 29.2983 10.7505 30.6306 10.478C33.7147 9.82207 36.803 9.40174 39.8849 9.33707C40.3656 9.32783 41.1835 9.22621 41.1941 10.2747C41.2067 11.3648 40.6776 12.067 39.8386 12.1316C37.8106 12.2933 35.77 12.321 33.7674 12.843C30.8393 13.6005 27.9112 14.0763 25.0106 15.0186C23.7078 15.4435 22.4113 15.9101 21.117 16.4274C19.8248 16.954 18.541 17.5591 17.2677 18.2565C14.8793 19.6007 12.5541 21.3698 10.2669 23.2867C8.29163 24.9219 6.31217 26.5894 4.4339 28.7419C4.21256 28.996 3.98278 29.3239 3.74668 29.6611C3.51479 30.0075 3.2808 30.3725 3.0447 30.6681C2.64839 31.1438 2.02019 32.0446 1.61966 32.4926C1.44469 32.682 1.26972 32.8991 1.12427 33.1624C0.458124 34.3864 0.167214 34.368 0.0913239 33.033C0.0744595 32.7374 -0.0773226 32.5527 0.0512683 32.1369C0.0554844 32.1185 0.0660311 32.0861 0.0723552 32.0677C0.245215 31.3656 0.496066 30.8667 0.770113 30.4464C1.05048 30.0399 1.35405 29.7073 1.63653 29.3008C4.43391 25.3469 7.45895 22.2151 10.5704 19.6931C12.4824 18.1549 14.4408 16.9124 16.3929 15.6883C16.9262 15.3419 17.4532 14.9216 18.0118 14.7322L18.0034 14.7368C18.5726 14.4088 19.1439 14.0901 19.7215 13.8222C21.9054 12.8753 24.1947 12.0023 26.3154 11.5081C26.3977 11.4803 26.5073 11.4064 26.6295 11.3741Z" fill="var(--fill-0, #3737F5)"/>
<path d="M44.2338 11.6418C44.1959 12.1084 44.0778 12.8336 43.8649 13.4987C43.6562 14.1777 43.3716 14.7828 43.0744 15.3233C42.7687 15.8683 42.4862 16.3025 42.2059 16.7737C41.9255 17.2402 41.6535 17.6882 41.4153 18.0855C39.2145 21.7761 37.0032 25.4391 34.7075 28.8295C34.3492 29.3607 33.761 30.3261 33.4849 29.4762C33.1982 28.5893 33.4153 27.4345 34.0266 26.4691C35.5086 24.1365 37.039 21.9101 38.4346 19.3604C39.4549 17.4943 40.5047 15.7159 41.5608 13.956C41.8285 13.508 42.0878 13.0969 42.2986 12.6811C42.5136 12.2654 42.6844 11.822 42.7708 11.4294C42.8151 11.2307 42.8383 11.0506 42.8446 10.8797C42.8488 10.7088 42.8362 10.524 42.8151 10.3624C42.7624 10.0529 42.6422 9.7157 42.4314 9.42007C42.2501 9.15217 42.0225 8.92583 41.78 8.73645C41.5334 8.54707 41.2825 8.40848 41.0001 8.28377C40.4203 8.0251 39.8406 7.74794 39.2588 7.50775C38.0973 6.99965 36.9315 6.5516 35.7616 6.14512C33.5629 5.40145 31.3452 4.98111 29.1381 4.44068C27.2324 3.97877 25.333 3.35519 23.4189 3.00876C22.9678 2.92562 22.4197 3.0642 21.9264 2.98568C21.5175 2.93025 20.8345 2.86557 20.4318 2.74085C20.2569 2.69004 20.0756 2.62999 19.9048 2.65771C19.1143 2.78704 18.9098 2.39442 19.186 1.21655C19.2471 0.957879 19.1839 0.611441 19.3778 0.440534C19.3862 0.431296 19.401 0.417451 19.4094 0.412832C20.0018 -0.275413 20.5984 0.0941151 21.1992 0.140306C24.161 0.315832 27.1186 0.819314 30.0656 1.5168C31.8743 1.95099 33.6746 2.54224 35.477 3.03648C35.9703 3.1612 36.472 3.20738 36.9631 3.47991L36.9547 3.47528C37.4775 3.63233 38.0003 3.78016 38.5189 3.98801C39.008 4.19587 39.5033 4.40373 40.0008 4.61159C40.5004 4.83331 41.0001 5.05502 41.4976 5.27674C42.0414 5.55388 42.5895 5.91879 43.1313 6.65323C43.399 7.02738 43.6731 7.51699 43.8923 8.20062C44.1136 8.87962 44.2507 9.77573 44.2549 10.6118C44.2549 10.7457 44.2591 10.9028 44.2612 11.0783C44.2549 11.2585 44.2507 11.4525 44.2338 11.6418Z" fill="var(--fill-0, #3737F5)"/>
</g>
</svg>
