<svg width="358" height="227" viewBox="0 0 358 227" fill="none" xmlns="http://www.w3.org/2000/svg">
<path d="M0 16C0 7.16344 7.16344 0 16 0H342C350.837 0 358 7.16344 358 16V227H0V16Z" fill="#F8F2EA"/>
<path d="M263.71 145.68C263.71 131.81 252.47 120.57 238.6 120.57H230.23V112.2C230.23 93.71 215.24 78.71 196.74 78.71H129.77C111.28 78.71 96.2803 93.7 96.2803 112.2V204.28H263.71V145.68Z" fill="#89A2B6"/>
<mask id="mask0_6_20536" style="mask-type:luminance" maskUnits="userSpaceOnUse" x="142" y="117" width="72" height="17">
<path d="M213.9 117.94H142.37V133.27H213.9V117.94Z" fill="white"/>
</mask>
<g mask="url(#mask0_6_20536)">
<path d="M173.02 133.26H164.57C164.57 129.47 161.48 126.38 157.69 126.38C153.9 126.38 150.81 129.47 150.81 133.26H142.36C142.36 124.8 149.23 117.93 157.69 117.93C166.15 117.93 173.02 124.8 173.02 133.26Z" fill="#292924"/>
<path d="M213.9 133.26H205.45C205.45 129.47 202.36 126.38 198.57 126.38C194.78 126.38 191.69 129.47 191.69 133.26H183.24C183.24 124.81 190.11 117.93 198.57 117.93C207.03 117.93 213.9 124.8 213.9 133.26Z" fill="#292924"/>
</g>
<mask id="mask1_6_20536" style="mask-type:luminance" maskUnits="userSpaceOnUse" x="47" y="19" width="69" height="69">
<path d="M115.6 19.33H47.71V87.22H115.6V19.33Z" fill="white"/>
</mask>
<g mask="url(#mask1_6_20536)">
<path d="M97.4602 80.8L92.3602 71.97M109.1 69.21L100.27 64.11M113.39 53.35H103.2M109.18 37.47L100.35 42.57M97.5902 25.83L92.4902 34.66M81.7302 21.53V31.72M65.8502 25.75L70.9502 34.58M54.2002 37.34L63.0302 42.44M49.9102 53.2H60.1002M54.1302 69.08L62.9602 63.98M65.7202 80.72L70.8202 71.89M81.5802 85.02V74.83" stroke="#EA5297" stroke-width="4" stroke-miterlimit="10" stroke-linecap="round"/>
</g>
<mask id="mask2_6_20536" style="mask-type:luminance" maskUnits="userSpaceOnUse" x="143" y="35" width="37" height="37">
<path d="M179.6 35.1H143.26V71.44H179.6V35.1Z" fill="white"/>
</mask>
<g mask="url(#mask2_6_20536)">
<path d="M172.69 64.6L168.62 60.53M177.4 53.32H171.65M172.75 42.02L168.68 46.09M161.47 37.31V43.06M150.17 41.95L154.24 46.02M145.46 53.23H151.21M150.11 64.54L154.18 60.47M161.39 69.24V63.49" stroke="#CF7326" stroke-width="3" stroke-miterlimit="10" stroke-linecap="round"/>
</g>
<mask id="mask3_6_20536" style="mask-type:luminance" maskUnits="userSpaceOnUse" x="250" y="69" width="60" height="59">
<path d="M309.42 69.65H250.9V127.68H309.42V69.65Z" fill="white"/>
</mask>
<g mask="url(#mask3_6_20536)">
<path d="M288.2 112.61L286.46 109.63M293.94 122.46L292.2 119.48M294.15 106.75L291.14 105.03M304.09 112.44L301.08 110.72M296.36 98.73H292.89M307.83 98.73H304.36M294.22 90.7L291.21 92.42M304.16 85.01L301.15 86.73M288.32 84.79L286.58 87.77M294.05 74.94L292.31 77.92M280.22 82.61V86.05M280.22 71.23V74.67M272.11 84.73L273.85 87.71M266.38 74.88L268.12 77.86M266.16 90.58L269.17 92.3M256.22 84.89L259.23 86.61M263.95 98.6H267.42M252.48 98.6H255.95M266.09 106.64L269.1 104.92M256.15 112.32L259.16 110.6M272 112.54L273.74 109.56M266.26 122.39L268 119.41M280.09 114.73V111.29M280.09 126.1V122.66" stroke="#9FB7CD" stroke-width="3" stroke-miterlimit="10" stroke-linecap="round"/>
</g>
<mask id="mask4_6_20536" style="mask-type:luminance" maskUnits="userSpaceOnUse" x="213" y="22" width="38" height="38">
<path d="M250.9 22.91H213.9V59.91H250.9V22.91Z" fill="white"/>
</mask>
<g mask="url(#mask4_6_20536)">
<path d="M243.861 52.93L239.721 48.79M248.651 41.45H242.801M243.921 29.94L239.781 34.08M232.441 25.15V31M220.941 29.88L225.081 34.02M216.141 41.36H221.991M220.871 52.87L225.011 48.73M232.351 57.66V51.81" stroke="#858F41" stroke-width="4" stroke-miterlimit="10" stroke-linecap="round"/>
</g>
<mask id="mask5_6_20536" style="mask-type:luminance" maskUnits="userSpaceOnUse" x="50" y="111" width="27" height="29">
<path d="M76.8604 111.81H50.4004V139.38H76.8604V111.81Z" fill="white"/>
</mask>
<g mask="url(#mask5_6_20536)">
<path d="M70.4006 135L69.6006 133.9M74.6306 129.22L73.3306 128.8M74.6606 122.06L73.3606 122.48M70.4706 116.26L69.6706 117.36M63.6706 114.02V115.39M56.8606 116.2L57.6606 117.3M52.6306 121.98L53.9306 122.4M52.6006 129.14L53.9006 128.72M56.7906 134.95L57.5906 133.84M63.5906 137.18V135.81" stroke="#868E4C" stroke-width="3" stroke-miterlimit="10" stroke-linecap="round"/>
</g>
</svg>
