<svg width="358" height="224" viewBox="0 0 358 224" fill="none" xmlns="http://www.w3.org/2000/svg">
<g clip-path="url(#clip0_6_20456)">
<path d="M0 16C0 7.16345 7.16344 0 16 0H342C350.837 0 358 7.16344 358 16V224H0V16Z" fill="#F8F2EA"/>
<rect x="48" y="112" width="262.15" height="262.15" rx="65.5375" fill="#FF88C8"/>
<g clip-path="url(#clip1_6_20456)">
<path d="M173.249 168.071H163.618C163.618 163.746 160.098 160.226 155.773 160.226C151.447 160.226 147.927 163.746 147.927 168.071H138.296C138.296 158.431 146.132 150.594 155.773 150.594C165.413 150.594 173.249 158.431 173.249 168.071Z" fill="#292924"/>
<path d="M219.854 168.071H210.222C210.222 163.746 206.703 160.226 202.377 160.226C198.052 160.226 194.532 163.746 194.532 168.071H184.9C184.9 158.44 192.737 150.594 202.377 150.594C212.017 150.594 219.854 158.431 219.854 168.071Z" fill="#292924"/>
</g>
<circle cx="178.808" cy="67" r="45" fill="#838E49"/>
<path d="M195.143 47.9887C196.588 46.1415 199.167 45.8786 200.915 47.4294L200.92 47.4333C202.645 48.9737 202.878 51.7127 201.442 53.5577L178.336 83.2234L178.332 83.2282C177.528 84.2531 176.365 84.7999 175.182 84.7999C174.394 84.7999 173.603 84.5567 172.914 84.0708L172.906 84.0651L159.044 74.1778C157.163 72.8388 156.666 70.1353 157.91 68.1421C159.159 66.1357 161.706 65.5794 163.6 66.9326L174.392 74.6297L195.14 47.9918L195.143 47.9887Z" fill="#292924" stroke="#292924" stroke-width="3.92944"/>
</g>
<defs>
<clipPath id="clip0_6_20456">
<path d="M0 16C0 7.16345 7.16344 0 16 0H342C350.837 0 358 7.16344 358 16V224H0V16Z" fill="white"/>
</clipPath>
<clipPath id="clip1_6_20456">
<rect width="81.5578" height="17.4767" fill="white" transform="translate(138.296 150.594)"/>
</clipPath>
</defs>
</svg>
