<svg width="358" height="224" viewBox="0 0 358 224" fill="none" xmlns="http://www.w3.org/2000/svg">
<g clip-path="url(#clip0_6_20491)">
<path d="M0 16C0 7.16345 7.16344 0 16 0H342C350.837 0 358 7.16344 358 16V224H0V16Z" fill="#F8F2EA"/>
<rect x="203" y="30" width="120" height="120" rx="30" fill="#FF88C8"/>
<path d="M230 52C230 49.2386 232.239 47 235 47H245C247.761 47 250 49.2386 250 52V132H230V52Z" fill="#FFCCE7"/>
<path d="M276 52C276 49.2386 278.239 47 281 47H291C293.761 47 296 49.2386 296 52V132H276V52Z" fill="#F759A9"/>
<path d="M318.232 109.508L302.144 119.62C278.842 107.664 276.196 66.51 276 52.062C275.962 49.276 278.214 47 281 47H290.954C293.704 47 295.936 49.22 295.954 51.968C296.036 64.986 298.178 99.752 318.23 109.508H318.232Z" fill="#FFCCE7"/>
<path d="M191.5 186.523C191.5 166.564 175.348 150.383 155.425 150.383H143.4V138.337C143.4 111.724 121.865 90.15 95.3 90.15H-0.900001C-27.4648 90.15 -49 111.724 -49 138.337V270.85H191.5V186.523Z" fill="#89A2B6"/>
<path d="M69.2998 152.546C69.2998 141.517 60.1423 132.63 49.0183 133.065C38.9891 133.454 30.6907 141.764 30.3144 151.804C29.8902 162.904 38.7893 172.05 49.8071 172.05C60.8248 172.05 69.2998 163.328 69.2998 152.558" fill="#FBF8F5"/>
<path d="M69.2996 152.55C69.2996 145.72 63.7658 140.2 56.9501 140.2C50.1345 140.2 44.5996 145.88 44.5996 152.55C44.5996 159.219 50.1334 164.9 56.9501 164.9C63.7668 164.9 69.2996 159.366 69.2996 152.55Z" fill="#292924"/>
<path d="M121.3 152.546C121.3 141.517 112.142 132.63 101.018 133.065C90.9891 133.454 82.6907 141.764 82.3144 151.804C81.8902 162.904 90.7893 172.05 101.807 172.05C112.825 172.05 121.3 163.328 121.3 152.557" fill="#FBF8F5"/>
<path d="M121.3 152.55C121.3 145.72 115.766 140.2 108.95 140.2C102.134 140.2 96.5996 145.88 96.5996 152.55C96.5996 159.219 102.133 164.9 108.95 164.9C115.767 164.9 121.3 159.366 121.3 152.55Z" fill="#292924"/>
</g>
<defs>
<clipPath id="clip0_6_20491">
<path d="M0 16C0 7.16345 7.16344 0 16 0H342C350.837 0 358 7.16344 358 16V224H0V16Z" fill="white"/>
</clipPath>
</defs>
</svg>
