<svg width="358" height="224" viewBox="0 0 358 224" fill="none" xmlns="http://www.w3.org/2000/svg">
<g clip-path="url(#clip0_6_20373)">
<path d="M0 16C0 7.16345 7.16344 0 16 0H342C350.837 0 358 7.16344 358 16V224H0V16Z" fill="#F8F2EA"/>
<path d="M263.908 112.883L200.22 29.4596C194.959 22.5596 187.194 19.0457 179.413 19C171.631 19.0457 163.866 22.5596 158.605 29.4596L94.9175 112.883L128.716 155.557H230.11L263.908 112.883Z" fill="#89A2B6"/>
<path d="M221.66 202.742L189.816 161.03C187.185 157.58 183.303 155.823 179.412 155.8C175.521 155.823 171.639 157.58 169.008 161.03L137.165 202.742L154.064 224.079H204.761L221.66 202.742Z" fill="#838E49"/>
<g clip-path="url(#clip1_6_20373)">
<g clip-path="url(#clip2_6_20373)">
<path d="M220.042 125.667C220.57 124.395 220.894 123.015 220.942 121.551L220.954 121.551C221.194 114.951 215.999 109.395 209.389 109.143C202.79 108.903 197.224 114.099 196.972 120.699C196.912 122.451 197.248 124.131 197.872 125.667L184.963 125.667C184.975 112.407 195.712 101.667 208.969 101.667C222.226 101.667 232.963 112.407 232.963 125.667L220.042 125.667Z" fill="#FBF8F5"/>
<path d="M209.389 109.143C215.999 109.395 221.194 114.951 220.954 121.563L220.942 121.563C220.894 123.003 220.57 124.383 220.042 125.655L197.872 125.655C197.248 124.131 196.912 122.451 196.972 120.687C197.224 114.087 202.791 108.891 209.389 109.131L209.389 109.143Z" fill="#292924"/>
<path d="M160.042 125.667C160.57 124.395 160.894 123.015 160.942 121.551L160.954 121.551C161.194 114.951 155.999 109.395 149.389 109.143C142.79 108.903 137.224 114.099 136.972 120.699C136.912 122.451 137.248 124.131 137.872 125.667L124.963 125.667C124.975 112.407 135.712 101.667 148.969 101.667C162.226 101.667 172.963 112.407 172.963 125.667L160.042 125.667Z" fill="#FBF8F5"/>
<path d="M149.389 109.143C155.999 109.395 161.194 114.951 160.954 121.563L160.942 121.563C160.894 123.003 160.57 124.383 160.042 125.655L137.872 125.655C137.248 124.131 136.912 122.451 136.972 120.687C137.224 114.087 142.791 108.891 149.389 109.131L149.389 109.143Z" fill="#292924"/>
</g>
</g>
<path d="M177.945 173.705C178.918 173.261 180.061 173.432 180.872 174.14L191.795 183.698C192.383 184.21 192.725 184.961 192.725 185.746C192.725 186.531 192.383 187.282 191.795 187.802L183.219 195.303L191.795 202.804C192.383 203.324 192.725 204.075 192.725 204.86C192.725 205.645 192.383 206.396 191.795 206.917L180.872 216.474C180.07 217.183 178.918 217.345 177.945 216.909C176.972 216.474 176.341 215.493 176.341 214.418V201.319L169.949 206.917C168.814 207.907 167.091 207.796 166.092 206.661C165.094 205.526 165.213 203.802 166.348 202.804L174.924 195.303L166.348 187.802C165.213 186.812 165.102 185.08 166.092 183.945C167.082 182.81 168.814 182.699 169.949 183.689L176.341 189.287V176.188C176.341 175.113 176.964 174.14 177.945 173.705ZM181.802 201.319V208.402L185.847 204.86L181.802 201.319ZM181.802 189.287L185.847 185.746L181.802 182.204V189.287Z" fill="#292924"/>
</g>
<defs>
<clipPath id="clip0_6_20373">
<path d="M0 16C0 7.16345 7.16344 0 16 0H342C350.837 0 358 7.16344 358 16V224H0V16Z" fill="white"/>
</clipPath>
<clipPath id="clip1_6_20373">
<rect width="109.2" height="24" fill="white" transform="translate(233.917 125.6) rotate(-180)"/>
</clipPath>
<clipPath id="clip2_6_20373">
<rect width="109.2" height="24" fill="white" transform="translate(233.917 125.6) rotate(-180)"/>
</clipPath>
</defs>
</svg>
