<svg width="358" height="224" viewBox="0 0 358 224" fill="none" xmlns="http://www.w3.org/2000/svg">
<g clip-path="url(#clip0_6_20137)">
<path d="M0 16C0 7.16345 7.16344 0 16 0H342C350.837 0 358 7.16344 358 16V224H0V16Z" fill="#F8F2EA"/>
<rect x="82.9629" y="34.4507" width="243" height="243" rx="60.75" fill="#FF88C8"/>
<path d="M182.74 171.369C182.74 158.881 172.617 148.758 160.129 148.758H152.592V141.221C152.592 124.571 139.094 111.073 122.444 111.073H62.1481C45.4978 111.073 32 124.571 32 141.221V224.128H182.74V171.369Z" fill="#89A2B6"/>
<g clip-path="url(#clip1_6_20137)">
<path d="M105.271 149.243H99.114C99.114 146.411 96.8637 144.107 94.0984 144.107C91.333 144.107 89.0828 146.411 89.0828 149.243H82.9252C82.9252 142.932 87.9353 137.801 94.0984 137.801C100.261 137.801 105.271 142.932 105.271 149.243Z" fill="#292924"/>
<path d="M135.064 149.243H128.907C128.907 146.411 126.657 144.107 123.891 144.107C121.126 144.107 118.876 146.411 118.876 149.243H112.718C112.718 142.938 117.728 137.801 123.891 137.801C130.054 137.801 135.064 142.932 135.064 149.243Z" fill="#292924"/>
</g>
<path fill-rule="evenodd" clip-rule="evenodd" d="M75.1094 197.259C75.1094 182.43 63.0565 170.389 48.18 170.389L48.1645 170.398L31.9975 170.398L31.9975 224.12L48.1645 224.12L48.18 224.129C63.0565 224.129 75.1094 212.089 75.1094 197.259Z" fill="#FF88C8"/>
<g clip-path="url(#clip2_6_20137)">
<path d="M265.164 89.7329C269.853 94.5492 270.261 102.03 266.44 107.33C268.633 106.632 270.702 105.413 272.447 103.652C278.267 97.778 278.309 88.2128 272.541 82.2876C266.773 76.3624 257.378 76.3211 251.558 82.1953C249.813 83.9564 248.599 86.0522 247.893 88.2794C253.132 84.4354 260.475 84.9166 265.164 89.7329Z" fill="#FBF8F5"/>
<path d="M251.464 103.56C255.503 107.709 261.317 108.962 266.44 107.33C270.261 102.03 269.853 94.5491 265.164 89.7328C260.475 84.9165 253.132 84.4353 247.893 88.2793C246.246 93.4806 247.425 99.4111 251.464 103.56Z" fill="#292924"/>
<path d="M225.599 89.7321C230.288 94.5484 230.696 102.029 226.875 107.329C229.068 106.631 231.137 105.413 232.882 103.651C238.702 97.7772 238.744 88.2119 232.976 82.2867C227.208 76.3615 217.813 76.3202 211.993 82.1945C210.248 83.9556 209.034 86.0514 208.328 88.2786C213.567 84.4346 220.91 84.9158 225.599 89.7321Z" fill="#FBF8F5"/>
<path d="M211.899 103.559C215.938 107.708 221.752 108.961 226.875 107.329C230.696 102.029 230.288 94.5482 225.599 89.7319C220.91 84.9156 213.567 84.4344 208.329 88.2784C206.681 93.4797 207.861 99.4102 211.899 103.559Z" fill="#292924"/>
</g>
</g>
<defs>
<clipPath id="clip0_6_20137">
<path d="M0 16C0 7.16345 7.16344 0 16 0H342C350.837 0 358 7.16344 358 16V224H0V16Z" fill="white"/>
</clipPath>
<clipPath id="clip1_6_20137">
<rect width="52.8861" height="12.2045" fill="white" transform="translate(82.8231 137.142)"/>
</clipPath>
<clipPath id="clip2_6_20137">
<rect width="71.4651" height="31.4931" fill="white" transform="translate(206.487 76.638)"/>
</clipPath>
</defs>
</svg>
