<svg width="358" height="224" viewBox="0 0 358 224" fill="none" xmlns="http://www.w3.org/2000/svg">
<path d="M0 16C0 7.16345 7.16344 0 16 0H342C350.837 0 358 7.16344 358 16V224H0V16Z" fill="#BBCFDF"/>
<path d="M31.7999 58.1817C32.9119 48.7401 40.9142 41.625 50.4211 41.625H308.079C317.586 41.625 325.588 48.7401 326.7 58.1817L341.033 179.869C342.346 191.017 333.637 200.812 322.412 200.812H36.0881C24.8635 200.812 16.1538 191.017 17.4668 179.869L31.7999 58.1817Z" fill="#F8F2EA"/>
<rect x="144" y="48.375" width="70.5" height="24.75" rx="7.5" fill="#DAD2C4"/>
<path d="M150.165 34.3667C149.576 28.8279 153.918 24 159.488 24H199.012C204.582 24 208.924 28.8279 208.335 34.3667L206.579 50.8667C206.072 55.6336 202.051 59.25 197.257 59.25H161.243C156.449 59.25 152.428 55.6336 151.921 50.8667L150.165 34.3667Z" fill="#BBCFDF"/>
<rect opacity="0.5" x="54" y="107.062" width="93.75" height="93.75" rx="4.6875" fill="#DAD2C4"/>
<rect opacity="0.5" x="77.25" y="69.5625" width="46.875" height="37.5" rx="4.6875" fill="#DAD2C4"/>
<rect opacity="0.5" x="210" y="107.062" width="93.75" height="93.75" rx="4.6875" fill="#DAD2C4"/>
<rect opacity="0.5" x="233.25" y="69.5625" width="46.875" height="37.5" rx="4.6875" fill="#DAD2C4"/>
<line x1="163.142" y1="161.388" x2="236.575" y2="198.92" stroke="#292924" stroke-width="2.8125" stroke-linecap="round"/>
<line x1="70.9547" y1="132.025" x2="195.775" y2="171.858" stroke="#292924" stroke-width="2.8125" stroke-linecap="round"/>
<rect x="174" y="64.4507" width="30" height="30" rx="7.5" fill="#FF88C8"/>
<path d="M180.75 69.9507C180.75 69.2603 181.31 68.7007 182 68.7007H184.5C185.19 68.7007 185.75 69.2603 185.75 69.9507V89.9507H180.75V69.9507Z" fill="#F759A9"/>
<path d="M192.25 69.9507C192.25 69.2603 192.81 68.7007 193.5 68.7007H196C196.69 68.7007 197.25 69.2603 197.25 69.9507V89.9507H192.25V69.9507Z" fill="#E43E93"/>
</svg>
