<svg width="358" height="224" viewBox="0 0 358 224" fill="none" xmlns="http://www.w3.org/2000/svg">
<g clip-path="url(#clip0_6_20416)">
<path d="M0 16C0 7.16345 7.16344 0 16 0H342C350.837 0 358 7.16344 358 16V224H0V16Z" fill="#F8F2EA"/>
<rect x="31" y="44.1719" width="296" height="296" rx="74.3096" fill="#292924"/>
<g clip-path="url(#clip1_6_20416)">
<path d="M210.293 43.2892C210.293 59.8577 223.724 73.2891 240.293 73.2891C256.861 73.2891 270.293 59.8577 270.293 43.2892C270.293 26.7206 256.861 13.2891 240.293 13.2891C223.724 13.2891 210.293 26.7207 210.293 43.2892Z" fill="#838E49"/>
<path d="M236.92 26.5482L243.663 26.5482L243.663 49.7613L251.218 40.518L255.989 44.9153L244.717 57.6883C243.422 59.1241 242.068 60.0366 240.292 60.0366C238.516 60.0366 237.161 59.1694 235.912 57.6883L224.594 44.9153L229.365 40.5179L236.92 49.7612L236.92 26.5482Z" fill="#292924"/>
<path d="M259.987 84.4512C260.387 95.4954 251.728 104.739 240.709 105.159C229.71 105.56 220.431 96.8962 220.011 85.8917C219.651 74.8475 228.271 65.6038 239.269 65.1836C250.288 64.8233 259.567 73.4467 259.967 84.4912H259.987V84.4512Z" fill="#292924"/>
</g>
<g clip-path="url(#clip2_6_20416)">
<path d="M223.829 171.088C223.367 156.788 211.856 145.321 197.467 145.321C192.867 145.321 188.542 146.496 184.773 148.56C179.548 142.064 171.533 137.905 162.547 137.905C146.798 137.905 134.601 150.022 134.125 165.709C134.11 166.177 134.033 167.78 134.033 168.099L134.032 208.876H223.926V173.452C223.926 173.452 223.852 171.816 223.829 171.088Z" fill="#FF88C8"/>
<path d="M181.639 171.784C181.639 177.746 176.689 182.551 170.675 182.315C165.253 182.105 160.767 177.613 160.564 172.185C160.334 166.184 165.145 161.24 171.101 161.24C177.058 161.24 181.639 165.955 181.639 171.778" fill="#FBF8F5"/>
<path d="M181.639 171.782C181.639 175.002 179.03 177.605 175.816 177.605C172.601 177.605 169.992 174.927 169.992 171.782C169.992 168.637 172.601 165.958 175.816 165.958C179.03 165.958 181.639 168.568 181.639 171.782Z" fill="#292924"/>
<path d="M208.004 171.784C208.004 177.746 203.053 182.551 197.039 182.315C191.617 182.105 187.131 177.613 186.928 172.185C186.698 166.184 191.509 161.24 197.466 161.24C203.422 161.24 208.004 165.955 208.004 171.778" fill="#FBF8F5"/>
<path d="M208.003 171.782C208.003 175.002 205.394 177.605 202.18 177.605C198.965 177.605 196.356 174.927 196.356 171.782C196.356 168.637 198.965 165.958 202.18 165.958C205.394 165.958 208.003 168.568 208.003 171.782Z" fill="#292924"/>
</g>
<circle cx="240" cy="84" r="9.5" fill="#636768"/>
<circle cx="240" cy="84" r="9.5" stroke="black" stroke-width="3"/>
<circle cx="240" cy="84" r="9.5" stroke="#909090" stroke-width="3"/>
<circle cx="278.5" cy="84.5" r="9.5" fill="#D03C30"/>
</g>
<defs>
<clipPath id="clip0_6_20416">
<path d="M0 16C0 7.16345 7.16344 0 16 0H342C350.837 0 358 7.16344 358 16V224H0V16Z" fill="white"/>
</clipPath>
<clipPath id="clip1_6_20416">
<rect width="64.7912" height="69.3433" fill="white" transform="translate(206.5 9)"/>
</clipPath>
<clipPath id="clip2_6_20416">
<rect width="229.854" height="108.085" fill="white" transform="translate(64.0522 137.905)"/>
</clipPath>
</defs>
</svg>
