<svg width="358" height="224" viewBox="0 0 358 224" fill="none" xmlns="http://www.w3.org/2000/svg">
<path d="M0 16C0 7.16345 7.16344 0 16 0H342C350.837 0 358 7.16344 358 16V224H0V16Z" fill="#F8F2EA"/>
<path d="M284.792 97.392C280.202 84.7809 266.257 78.2786 253.646 82.8686L246.035 85.639L243.265 78.0275C237.144 61.2126 218.552 52.5428 201.737 58.6629L140.845 80.8258C124.03 86.9459 115.36 105.538 121.48 122.353L151.954 206.08L304.185 150.673L284.792 97.392Z" fill="#89A2B6"/>
<rect width="43.75" height="43.75" rx="10.9375" transform="matrix(-0.984808 0.173648 0.173648 0.984808 143.085 36)" fill="#FF88C8"/>
<g clip-path="url(#clip0_6_20318)">
<path d="M212.852 88.489C215.511 87.5214 218.215 87.4035 220.739 87.9695C217.6 89.3498 216.025 92.9437 217.215 96.2126C218.405 99.4814 221.921 101.223 225.213 100.262C223.643 102.318 221.496 103.966 218.838 104.934C213.219 106.978 207.388 105.268 203.511 101.2C203.866 95.5923 207.234 90.5339 212.852 88.489Z" fill="#FBF8F5"/>
<path d="M217.215 96.2125C216.026 92.9437 217.6 89.3498 220.739 87.9694C223.55 88.5995 226.136 90.0792 228.178 92.2223C227.992 95.1765 226.961 97.9729 225.213 100.262C221.921 101.222 218.405 99.4813 217.215 96.2125Z" fill="#292924"/>
<path d="M181.333 99.961C183.992 98.9933 186.696 98.8754 189.22 99.4414C186.081 100.822 184.507 104.416 185.696 107.685C186.886 110.953 190.402 112.694 193.695 111.734C192.125 113.79 189.977 115.438 187.319 116.406C181.701 118.45 175.869 116.74 171.993 112.672C172.347 107.064 175.715 102.006 181.333 99.961Z" fill="#FBF8F5"/>
<path d="M185.697 107.684C184.507 104.416 186.081 100.822 189.221 99.4414C192.031 100.071 194.618 101.551 196.66 103.694C196.473 106.648 195.442 109.445 193.695 111.734C190.403 112.694 186.886 110.953 185.697 107.684Z" fill="#292924"/>
</g>
<line x1="142.3" y1="206.701" x2="111.1" y2="206.701" stroke="#FF88C8" stroke-width="1.8" stroke-linecap="round"/>
<line x1="131.261" y1="192.569" x2="114.969" y2="187.138" stroke="#FFB3DA" stroke-width="1.8" stroke-linecap="round"/>
<line x1="86.5175" y1="202.087" x2="76.7753" y2="200.81" stroke="#FFCCE7" stroke-width="1.8" stroke-linecap="round"/>
<circle cx="129.7" cy="216.9" r="2.7" fill="#FFB3DA"/>
<circle cx="102.1" cy="198.301" r="1.5" fill="#FC8AC5"/>
<defs>
<clipPath id="clip0_6_20318">
<rect width="59.7917" height="17.5" fill="white" transform="matrix(-0.939693 0.34202 0.34202 0.939693 225.186 84)"/>
</clipPath>
</defs>
</svg>
