<svg width="358" height="224" viewBox="0 0 358 224" fill="none" xmlns="http://www.w3.org/2000/svg">
<path d="M0 16C0 7.16345 7.16344 0 16 0H342C350.837 0 358 7.16344 358 16V224H0V16Z" fill="#F8F2EA"/>
<rect x="15" y="116" width="93" height="93" rx="21.8462" fill="#FF88C8"/>
<path d="M87.9339 138.133C88.015 140.371 86.2593 142.245 84.0251 142.33C81.7949 142.411 79.9135 140.655 79.8284 138.425C79.7554 136.186 81.503 134.312 83.7331 134.227C85.9674 134.154 87.8488 135.902 87.9299 138.141H87.9339V138.133Z" fill="#292924"/>
<path d="M71.7132 138.133C71.7943 140.371 70.0386 142.245 67.8044 142.33C65.5742 142.411 63.6928 140.655 63.6077 138.425C63.5347 136.186 65.2823 134.312 67.5124 134.227C69.7466 134.154 71.6281 135.902 71.7092 138.141H71.7132V138.133Z" fill="#292924"/>
<path d="M158 144.133C158 128.78 170.424 116.333 185.75 116.333H195V107.067C195 86.5953 211.566 70 232 70H306C326.434 70 343 86.5953 343 107.067V209H158V144.133Z" fill="#89A2B6"/>
<path d="M252 117.997C252 109.513 259.044 102.677 267.601 103.012C275.316 103.31 281.699 109.703 281.989 117.426C282.315 125.965 275.47 133 266.994 133C258.519 133 252 126.291 252 118.006" fill="#FBF8F5"/>
<path d="M252 118C252 112.746 256.257 108.5 261.5 108.5C266.742 108.5 271 112.869 271 118C271 123.13 266.743 127.5 261.5 127.5C256.256 127.5 252 123.243 252 118Z" fill="#292924"/>
<path d="M212 117.997C212 109.513 219.044 102.677 227.601 103.012C235.316 103.31 241.699 109.703 241.989 117.426C242.315 125.964 235.47 133 226.994 133C218.519 133 212 126.29 212 118.006" fill="#FBF8F5"/>
<path d="M212 118C212 112.746 216.257 108.5 221.5 108.5C226.742 108.5 231 112.869 231 118C231 123.13 226.743 127.5 221.5 127.5C216.256 127.5 212 123.243 212 118Z" fill="#292924"/>
</svg>
