<svg width="358" height="224" viewBox="0 0 358 224" fill="none" xmlns="http://www.w3.org/2000/svg">
<g clip-path="url(#clip0_6_20160)">
<path d="M0 16C0 7.16345 7.16344 0 16 0H342C350.837 0 358 7.16344 358 16V224H0V16Z" fill="#F8F2EA"/>
<g clip-path="url(#clip1_6_20160)">
<path d="M179 15C140.342 15.0048 109 46.512 109 85.125C109 115.851 130.552 135.801 133.706 138.75L179 180L224.294 138.75C227.448 135.801 249 115.851 249 85.125C249 46.512 217.658 15.0048 179 15Z" fill="#3B5848"/>
<g clip-path="url(#clip2_6_20160)">
<path d="M174.334 119.003C174.334 127.487 167.289 134.323 158.732 133.988C151.018 133.689 144.634 127.297 144.345 119.574C144.019 111.035 150.864 104 159.339 104C167.814 104 174.334 110.709 174.334 118.994" fill="#FBF8F5"/>
<path d="M170.584 119C170.584 125.222 165.543 130.25 159.334 130.25C153.125 130.25 148.084 125.075 148.084 119C148.084 112.924 153.125 107.75 159.334 107.75C165.543 107.75 170.584 112.79 170.584 119Z" fill="#292924"/>
<path d="M214.334 119.003C214.334 127.487 207.29 134.323 198.733 133.988C191.018 133.689 184.635 127.297 184.345 119.574C184.019 111.035 190.864 104 199.339 104C207.815 104 214.334 110.709 214.334 118.994" fill="#FBF8F5"/>
<path d="M210.584 119C210.584 125.222 205.543 130.25 199.334 130.25C193.125 130.25 188.084 125.075 188.084 119C188.084 112.924 193.125 107.75 199.334 107.75C205.543 107.75 210.584 112.79 210.584 119Z" fill="#292924"/>
</g>
</g>
<rect x="157" y="180" width="43.75" height="43.75" rx="10.9375" fill="#FF88C8"/>
</g>
<defs>
<clipPath id="clip0_6_20160">
<path d="M0 16C0 7.16345 7.16344 0 16 0H342C350.837 0 358 7.16344 358 16V224H0V16Z" fill="white"/>
</clipPath>
<clipPath id="clip1_6_20160">
<rect width="140" height="165" fill="white" transform="translate(109 15)"/>
</clipPath>
<clipPath id="clip2_6_20160">
<rect width="70" height="30" fill="white" transform="translate(144.333 104)"/>
</clipPath>
</defs>
</svg>
