<svg width="358" height="224" viewBox="0 0 358 224" fill="none" xmlns="http://www.w3.org/2000/svg">
<g clip-path="url(#clip0_6_20359)">
<path d="M0 16C0 7.16345 7.16344 0 16 0H342C350.837 0 358 7.16344 358 16V224H0V16Z" fill="#F8F2EA"/>
<g clip-path="url(#clip1_6_20359)">
<path fill-rule="evenodd" clip-rule="evenodd" d="M217.548 153.5C243.69 140.812 261.862 113.99 261.862 82.9999H104.999C104.999 113.99 123.171 140.812 149.313 153.5C123.084 166.155 104.999 192.946 104.999 224H261.862C261.862 192.946 243.777 166.155 217.548 153.5Z" fill="#838E49"/>
</g>
<rect x="124" y="39" width="43.75" height="43.75" rx="10.9375" fill="#FF88C8"/>
<g clip-path="url(#clip2_6_20359)">
<path d="M192.934 111C192.934 105.613 188.985 101.16 183.827 100.346C185.478 99.4909 187.347 99 189.334 99C195.961 99 201.334 104.373 201.334 111C201.334 117.627 195.961 123 189.334 123C187.347 123 185.478 122.509 183.827 121.654C188.985 120.84 192.934 116.387 192.934 111Z" fill="#FBF8F5"/>
<path d="M177.334 111C177.334 106.359 179.972 102.342 183.827 100.346C188.985 101.16 192.934 105.613 192.934 111C192.934 116.387 188.985 120.84 183.827 121.654C179.972 119.658 177.334 115.64 177.334 111Z" fill="#292924"/>
<path d="M224.933 111C224.933 105.613 220.984 101.16 215.826 100.346C217.477 99.4909 219.346 99 221.333 99C227.96 99 233.333 104.373 233.333 111C233.333 117.627 227.96 123 221.333 123C219.346 123 217.477 122.509 215.826 121.654C220.984 120.84 224.933 116.387 224.933 111Z" fill="#FBF8F5"/>
<path d="M209.333 111C209.333 106.359 211.972 102.342 215.826 100.346C220.985 101.16 224.933 105.613 224.933 111C224.933 116.387 220.985 120.84 215.826 121.654C211.972 119.658 209.333 115.64 209.333 111Z" fill="#292924"/>
</g>
</g>
<defs>
<clipPath id="clip0_6_20359">
<path d="M0 16C0 7.16345 7.16344 0 16 0H342C350.837 0 358 7.16344 358 16V224H0V16Z" fill="white"/>
</clipPath>
<clipPath id="clip1_6_20359">
<rect width="156.862" height="141" fill="white" transform="translate(105 83)"/>
</clipPath>
<clipPath id="clip2_6_20359">
<rect width="56" height="24" fill="white" transform="matrix(-1 0 0 1 233.334 99)"/>
</clipPath>
</defs>
</svg>
