<svg preserveAspectRatio="none" width="100%" height="100%" overflow="visible" style="display: block;" viewBox="0 0 181.846 31.9995" fill="none" xmlns="http://www.w3.org/2000/svg">
<g id="Client 4" clip-path="url(#clip0_0_181)">
<g id="Frame" clip-path="url(#clip1_0_181)">
<g id="Vector" filter="url(#filter0_d_0_181)">
<path d="M21.122 5.39199H10.3407C8.93107 5.39199 7.78707 4.24663 7.78707 2.8329C7.78707 1.41916 8.92971 0.273801 10.3407 0.273801H21.122C22.5317 0.273801 23.6757 1.41916 23.6757 2.8329C23.6757 4.24663 22.533 5.39199 21.122 5.39199Z" fill="var(--fill-0, #7A6045)"/>
</g>
<g id="Vector_2" filter="url(#filter1_d_0_181)">
<path d="M28.9335 13.9232H2.52792C1.1318 13.9232 0 12.7778 0 11.3641C0 9.95037 1.1318 8.80501 2.52792 8.80501H28.9335C30.3296 8.80501 31.4614 9.95037 31.4614 11.3641C31.4614 12.7778 30.3296 13.9232 28.9335 13.9232Z" fill="var(--fill-0, #7A6045)"/>
</g>
<g id="Vector_3" filter="url(#filter2_d_0_181)">
<path d="M26.7024 22.4531H4.76035C3.36559 22.4531 2.23514 21.3077 2.23514 19.894C2.23514 18.4803 3.36559 17.3349 4.76035 17.3349H26.7038C28.0985 17.3349 29.229 18.4803 29.229 19.894C29.229 21.3077 28.0985 22.4531 26.7038 22.4531H26.7024Z" fill="var(--fill-0, #7A6045)"/>
</g>
<g id="Vector_4" filter="url(#filter3_d_0_181)">
<path d="M19.9211 30.9829H11.5417C10.132 30.9829 8.98801 29.8375 8.98801 28.4238C8.98801 27.0101 10.1307 25.8647 11.5417 25.8647H19.9211C21.3308 25.8647 22.4748 27.0101 22.4748 28.4238C22.4748 29.8375 21.3321 30.9829 19.9211 30.9829Z" fill="var(--fill-0, #7A6045)"/>
</g>
</g>
<g id="Vector_5" filter="url(#filter4_d_0_181)">
<path d="M163.745 18.487C163.96 15.0984 166.662 12.9107 170.695 12.9107C174.513 12.9107 177.215 15.0984 177.215 18.2295C177.215 18.3582 177.129 18.487 176.914 18.487H163.745ZM170.994 31.9995C174.983 31.9995 178.458 30.3689 180.474 27.5387C180.775 27.1104 180.946 26.6373 180.946 26.1657C180.946 25.0935 180.131 24.3209 179.059 24.3209C178.373 24.3209 177.815 24.6218 177.086 25.393C175.328 27.2798 173.483 28.1378 171.123 28.1378C166.833 28.1378 163.916 25.6506 163.702 21.8323H181.117C181.589 21.8323 181.846 21.5747 181.846 21.1464V20.6747C181.846 13.7253 177.427 9.17912 170.65 9.17912C163.873 9.17912 159.026 13.7687 159.026 20.6747C159.026 27.5807 163.744 31.9995 170.993 31.9995H170.994ZM154.438 31.9995C155.811 31.9995 156.797 30.9694 156.797 29.5977V2.40186C156.797 1.02879 155.767 0 154.438 0C153.108 0 152.078 1.03014 152.078 2.40186V29.5977C152.078 30.9707 153.108 31.9995 154.438 31.9995ZM128.143 31.9995C129.473 31.9995 130.416 30.9694 130.416 29.5977V28.2246C131.875 30.6264 134.748 31.9995 138.352 31.9995C145.173 31.9995 149.848 27.3246 149.848 20.5039C149.848 13.6833 145.215 9.17912 138.739 9.17912C135.093 9.17912 131.918 10.723 130.546 13.2116V2.40186C130.546 1.02879 129.516 0 128.186 0C126.857 0 125.827 1.03014 125.827 2.40186V29.5977C125.827 30.9707 126.813 31.9995 128.143 31.9995ZM137.709 28.1392C133.076 28.1392 130.331 25.351 130.331 20.5893C130.331 15.8276 133.076 13.0395 137.709 13.0395C142.341 13.0395 145.13 15.8276 145.13 20.5893C145.13 25.351 142.385 28.1392 137.709 28.1392ZM73.5807 31.9995C76.7118 31.9995 79.4146 30.6264 80.7009 28.4387V29.5963C80.7009 30.9694 81.7311 31.9982 83.0608 31.9982C84.3905 31.9982 85.4206 30.968 85.4206 29.5963V12.2668C85.4206 10.8938 84.3905 9.86498 83.0608 9.86498C81.7311 9.86498 80.7009 10.8951 80.7009 12.2668V22.6469C80.7009 26.3364 78.7274 28.352 75.1246 28.352C71.5218 28.352 69.5049 26.3364 69.5049 22.6469V12.2668C69.5049 10.8938 68.4747 9.86498 67.145 9.86498C65.8153 9.86498 64.7852 10.8951 64.7852 12.2668V22.9044C64.7852 28.7383 67.9163 31.9982 73.578 31.9982L73.5807 31.9995ZM42.6114 12.6111V4.33203C42.6114 4.15988 42.7835 3.9891 42.9543 3.9891H52.1334C55.0937 3.9891 56.8517 5.57633 56.8517 8.2791C56.8517 10.9819 55.0937 12.6111 52.1334 12.6111H42.6114ZM38.5369 31.3137H52.5211C58.6979 31.3137 62.5582 27.7963 62.5582 22.2199C62.5582 17.8445 60.5426 15.3573 56.338 14.5847C59.6833 13.8988 61.6134 11.4536 61.6134 7.93617C61.6134 3.08908 58.0107 0 52.3909 0H38.5355C38.1492 0 37.8497 0.30091 37.8497 0.685859V30.6264C37.8497 31.0128 38.1506 31.3123 38.5355 31.3123L38.5369 31.3137ZM42.6114 26.9383V16.729H52.3056C55.6942 16.729 57.7531 18.7446 57.7531 22.0044C57.7531 25.2643 55.6942 27.2798 52.3056 27.2798H42.9543C42.7821 27.2798 42.6114 27.1077 42.6114 26.9369V26.9383ZM90.5252 31.9995C91.8983 31.9995 92.8851 30.9694 92.8851 29.5977V18.5304C92.8851 15.013 94.9006 12.8253 98.2039 12.8253C101.507 12.8253 103.265 14.9276 103.265 18.5304V29.5977C103.265 30.9707 104.295 31.9995 105.625 31.9995C106.955 31.9995 107.985 30.9694 107.985 29.5977V18.5304C107.985 15.013 110 12.8253 113.304 12.8253C116.607 12.8253 118.365 14.9276 118.365 18.5304V29.5977C118.365 30.9707 119.395 31.9995 120.725 31.9995C122.054 31.9995 123.085 30.9694 123.085 29.5977V18.2729C123.085 12.5678 119.91 9.17912 114.591 9.17912C111.074 9.17912 108.458 10.681 107.041 13.4691C105.626 10.5956 103.223 9.17912 99.7071 9.17912C96.4906 9.17912 94.1741 10.3801 92.8864 12.7399V12.2682C92.8864 10.8951 91.8563 9.86634 90.5266 9.86634C89.1969 9.86634 88.1668 10.8965 88.1668 12.2682V29.5977C88.1668 30.9707 89.1969 31.9995 90.5266 31.9995H90.5252Z" fill="var(--fill-0, #7A6045)"/>
</g>
</g>
<defs>
<filter id="filter0_d_0_181" x="-8.21293" y="-11.7262" width="47.8886" height="37.1182" filterUnits="userSpaceOnUse" color-interpolation-filters="sRGB">
<feFlood flood-opacity="0" result="BackgroundImageFix"/>
<feColorMatrix in="SourceAlpha" type="matrix" values="0 0 0 0 0 0 0 0 0 0 0 0 0 0 0 0 0 0 127 0" result="hardAlpha"/>
<feOffset dy="4"/>
<feGaussianBlur stdDeviation="8"/>
<feComposite in2="hardAlpha" operator="out"/>
<feColorMatrix type="matrix" values="0 0 0 0 0.0705882 0 0 0 0 0.0705882 0 0 0 0 0.0705882 0 0 0 0.15 0"/>
<feBlend mode="normal" in2="BackgroundImageFix" result="effect1_dropShadow_0_181"/>
<feBlend mode="normal" in="SourceGraphic" in2="effect1_dropShadow_0_181" result="shape"/>
</filter>
<filter id="filter1_d_0_181" x="-16" y="-3.19499" width="63.4614" height="37.1182" filterUnits="userSpaceOnUse" color-interpolation-filters="sRGB">
<feFlood flood-opacity="0" result="BackgroundImageFix"/>
<feColorMatrix in="SourceAlpha" type="matrix" values="0 0 0 0 0 0 0 0 0 0 0 0 0 0 0 0 0 0 127 0" result="hardAlpha"/>
<feOffset dy="4"/>
<feGaussianBlur stdDeviation="8"/>
<feComposite in2="hardAlpha" operator="out"/>
<feColorMatrix type="matrix" values="0 0 0 0 0.0705882 0 0 0 0 0.0705882 0 0 0 0 0.0705882 0 0 0 0.15 0"/>
<feBlend mode="normal" in2="BackgroundImageFix" result="effect1_dropShadow_0_181"/>
<feBlend mode="normal" in="SourceGraphic" in2="effect1_dropShadow_0_181" result="shape"/>
</filter>
<filter id="filter2_d_0_181" x="-13.7649" y="5.33489" width="58.9938" height="37.1182" filterUnits="userSpaceOnUse" color-interpolation-filters="sRGB">
<feFlood flood-opacity="0" result="BackgroundImageFix"/>
<feColorMatrix in="SourceAlpha" type="matrix" values="0 0 0 0 0 0 0 0 0 0 0 0 0 0 0 0 0 0 127 0" result="hardAlpha"/>
<feOffset dy="4"/>
<feGaussianBlur stdDeviation="8"/>
<feComposite in2="hardAlpha" operator="out"/>
<feColorMatrix type="matrix" values="0 0 0 0 0.0705882 0 0 0 0 0.0705882 0 0 0 0 0.0705882 0 0 0 0.15 0"/>
<feBlend mode="normal" in2="BackgroundImageFix" result="effect1_dropShadow_0_181"/>
<feBlend mode="normal" in="SourceGraphic" in2="effect1_dropShadow_0_181" result="shape"/>
</filter>
<filter id="filter3_d_0_181" x="-7.01199" y="13.8647" width="45.4868" height="37.1182" filterUnits="userSpaceOnUse" color-interpolation-filters="sRGB">
<feFlood flood-opacity="0" result="BackgroundImageFix"/>
<feColorMatrix in="SourceAlpha" type="matrix" values="0 0 0 0 0 0 0 0 0 0 0 0 0 0 0 0 0 0 127 0" result="hardAlpha"/>
<feOffset dy="4"/>
<feGaussianBlur stdDeviation="8"/>
<feComposite in2="hardAlpha" operator="out"/>
<feColorMatrix type="matrix" values="0 0 0 0 0.0705882 0 0 0 0 0.0705882 0 0 0 0 0.0705882 0 0 0 0.15 0"/>
<feBlend mode="normal" in2="BackgroundImageFix" result="effect1_dropShadow_0_181"/>
<feBlend mode="normal" in="SourceGraphic" in2="effect1_dropShadow_0_181" result="shape"/>
</filter>
<filter id="filter4_d_0_181" x="21.8497" y="-12" width="175.996" height="63.9995" filterUnits="userSpaceOnUse" color-interpolation-filters="sRGB">
<feFlood flood-opacity="0" result="BackgroundImageFix"/>
<feColorMatrix in="SourceAlpha" type="matrix" values="0 0 0 0 0 0 0 0 0 0 0 0 0 0 0 0 0 0 127 0" result="hardAlpha"/>
<feOffset dy="4"/>
<feGaussianBlur stdDeviation="8"/>
<feComposite in2="hardAlpha" operator="out"/>
<feColorMatrix type="matrix" values="0 0 0 0 0.0705882 0 0 0 0 0.0705882 0 0 0 0 0.0705882 0 0 0 0.15 0"/>
<feBlend mode="normal" in2="BackgroundImageFix" result="effect1_dropShadow_0_181"/>
<feBlend mode="normal" in="SourceGraphic" in2="effect1_dropShadow_0_181" result="shape"/>
</filter>
<clipPath id="clip0_0_181">
<rect width="181.846" height="31.9995" fill="white"/>
</clipPath>
<clipPath id="clip1_0_181">
<rect width="31.4614" height="30.7091" fill="white" transform="translate(0 0.273806)"/>
</clipPath>
</defs>
</svg>
