<svg preserveAspectRatio="none" width="100%" height="100%" overflow="visible" style="display: block;" viewBox="0 0 196 32" fill="none" xmlns="http://www.w3.org/2000/svg">
<g id="Zoopla-Logo" clip-path="url(#clip0_0_174)">
<path id="Zoopla" d="M178.219 25.699C172.388 25.699 167.847 22.051 167.847 16C167.847 10.1196 172.149 6.25676 178.219 6.25676C184.624 6.25676 188.878 10.4625 188.878 16.0427C188.878 21.8377 184.338 25.699 178.219 25.699ZM140.222 31.107H160.345V25.3988H147.344V0.892948H140.222V31.107ZM121.678 19.9909C117.233 19.9909 113.935 17.2008 113.935 12.995C113.935 8.78933 117.376 5.99923 121.678 5.99923C126.219 5.99923 129.564 8.74666 129.564 12.995C129.564 17.2434 126.217 19.9909 121.678 19.9909ZM106.812 31.107H113.935V20.291C115.942 23.8537 119.575 25.6564 123.733 25.6564C130.758 25.6564 136.638 20.4632 136.638 12.995C136.638 5.52685 130.758 0.291044 123.733 0.291044C119.431 0.291044 115.895 2.22171 113.935 5.65638V0.850282H106.812V31.107V31.107ZM85.8293 25.7859C79.9018 25.7859 75.2657 21.9657 75.2657 16.0869C75.2657 10.1638 79.9018 6.17295 85.8293 6.17295C91.7568 6.17295 96.2962 10.1638 96.2962 16.0869C96.2979 21.9657 91.7568 25.7859 85.8293 25.7859V25.7859ZM85.8785 31.7089C96.0587 31.7089 103.468 25.3562 103.468 16.0869C103.468 6.81752 96.0587 0.291044 85.8785 0.291044C75.6984 0.291044 68.1452 6.81599 68.1452 16.0853C68.1452 25.3547 75.6967 31.7089 85.8785 31.7089V31.7089ZM47.6882 25.7859C41.7607 25.7859 37.1738 21.9657 37.1738 16.0869C37.1738 10.1638 41.7624 6.17295 47.6882 6.17295C53.6141 6.17295 58.2027 10.1638 58.2027 16.0869C58.2044 21.9657 53.6158 25.7859 47.6882 25.7859ZM47.7358 31.7089C57.9159 31.7089 65.3249 25.3562 65.3249 16.0869C65.3249 6.81752 57.9176 0.291044 47.7358 0.291044C37.5539 0.291044 30.0041 6.81599 30.0041 16.0853C30.0041 25.3547 37.5556 31.7089 47.7358 31.7089V31.7089ZM0.848484 31.107H28.4752V25.3988H8.49503C8.68679 20.8929 12.2708 19.6907 16.3333 18.4457C21.9248 16.7284 28.3784 14.5402 28.3784 3.16647V0.892948H0.943515V6.55847H20.8269C20.6352 10.8069 17.1462 11.9238 13.1804 13.1246C7.53964 14.8419 0.848484 17.0301 0.848484 28.7893V31.107V31.107ZM176.929 31.7089C182.139 31.7089 186.346 29.6061 188.878 25.8712V31.107H196V0.892948H188.878V6.08609C186.344 2.35276 182.139 0.292567 176.929 0.292567C168.039 0.292567 160.679 6.85866 160.679 16.0015C160.679 25.1444 168.039 31.7089 176.929 31.7089Z" fill="var(--fill-0, #7A6045)"/>
</g>
<defs>
<clipPath id="clip0_0_174">
<rect width="196" height="32" fill="white"/>
</clipPath>
</defs>
</svg>
