<svg width="544" height="104" viewBox="0 0 544 104" fill="none" xmlns="http://www.w3.org/2000/svg">
<g clip-path="url(#clip0_1_27)">
<path d="M0 85.92L53.76 33.76H1.44V20.48H74.56V35.68L20.8 87.84H75.84V101.12H0V85.92Z" fill="black"/>
<path d="M78.4 79.2C78.4 61.28 93.76 56.32 107.36 54.56L132.64 51.36C138.72 50.56 140.48 47.84 140.48 44.16V44C140.48 36.8 134.24 31.52 120.64 31.52C107.52 31.52 100.16 36.48 98.88 44.8H81.92C83.84 28.48 98.08 18.4 121.12 18.4C146.88 18.4 157.44 29.28 157.44 47.2V101.12H141.28V88.32C134.4 98.24 122.08 103.2 108.16 103.2C89.76 103.2 78.4 93.92 78.4 79.2ZM140.48 64.64V60.8C137.76 61.92 134.72 62.56 131.36 63.04L111.2 65.76C100.8 67.2 96 71.04 96 78.08C96 85.6 102.4 90.08 112.8 90.08C129.92 90.08 140.48 78.4 140.48 64.64Z" fill="black"/>
<path d="M164.96 0H181.92V101.12H164.96V0Z" fill="black"/>
<path d="M187.52 79.2C187.52 61.28 202.88 56.32 216.48 54.56L241.76 51.36C247.84 50.56 249.6 47.84 249.6 44.16V44C249.6 36.8 243.36 31.52 229.76 31.52C216.64 31.52 209.28 36.48 208 44.8H191.04C192.96 28.48 207.2 18.4 230.24 18.4C256 18.4 266.56 29.28 266.56 47.2V101.12H250.4V88.32C243.52 98.24 231.2 103.2 217.28 103.2C198.88 103.2 187.52 93.92 187.52 79.2ZM249.6 64.64V60.8C246.88 61.92 243.84 62.56 240.48 63.04L220.32 65.76C209.92 67.2 205.12 71.04 205.12 78.08C205.12 85.6 211.52 90.08 221.92 90.08C239.04 90.08 249.6 78.4 249.6 64.64Z" fill="black"/>
<path d="M274.08 20.48H291.04V33.6C297.12 24 308.64 18.4 322.72 18.4C343.84 18.4 356.32 30.56 356.32 52.96V101.12H339.36V55.36C339.36 40.48 331.52 32.32 317.12 32.32C301.6 32.32 291.04 42.72 291.04 57.44V101.12H274.08V20.48Z" fill="black"/>
<path d="M361.92 60.48C361.92 34.4 380 18.4 401.6 18.4C414.56 18.4 425.76 23.04 432.48 32.64V0H449.44V101.12H432.48V88.8C425.12 98.72 414.56 103.2 401.6 103.2C380 103.2 361.92 86.88 361.92 60.48ZM432.96 60.64C432.96 43.84 423.04 32.16 406.24 32.16C389.6 32.16 379.52 43.68 379.52 60.48C379.52 77.44 389.6 89.44 406.24 89.44C423.04 89.44 432.96 77.44 432.96 60.64Z" fill="black"/>
<path d="M455.04 60.64C455.04 35.84 471.84 18.4 499.52 18.4C527.36 18.4 544 35.84 544 60.64C544 85.44 527.36 103.2 499.52 103.2C471.84 103.2 455.04 85.44 455.04 60.64ZM526.4 60.64C526.4 44.96 517.76 32.16 499.52 32.16C481.28 32.16 472.64 44.96 472.64 60.64C472.64 76.48 481.28 89.44 499.52 89.44C517.76 89.44 526.4 76.48 526.4 60.64Z" fill="black"/>
</g>
<defs>
<clipPath id="clip0_1_27">
<rect width="544" height="103.2" fill="white"/>
</clipPath>
</defs>
</svg>
