<svg width="178" height="124" viewBox="0 0 178 124" fill="none" xmlns="http://www.w3.org/2000/svg">
<path d="M176.917 13.5321C177.092 14.4491 177.483 17.7124 177.645 19.8025C178.104 24.63 177.767 29.6329 175.811 34.1367C175.501 34.8379 175.191 36.0785 172.238 35.2829C169.163 34.4603 167.545 33.3142 167.896 32.2893C168.705 29.7812 169.757 27.1247 169.244 24.4278C168.516 20.5577 168.489 16.7146 167.37 13.0063C167.195 12.386 166.992 11.7657 166.79 11.1589L166.669 10.7678L166.628 10.6734L166.561 10.4981C166.48 10.2689 166.359 9.98571 166.089 9.94526C165.914 9.93177 165.752 10.0396 165.63 10.161C165.576 10.2149 165.523 10.2959 165.482 10.3633L165.428 10.4712C165.415 10.4981 165.428 10.4981 165.401 10.5251L163.095 12.4669C161.733 13.6266 160.358 14.7593 158.875 15.7436C156.326 17.4427 153.346 18.508 150.649 19.9913C150.015 20.3419 149.611 21.2993 148.936 21.7038C148.37 22.041 147.453 22.6343 146.765 22.7827C146.469 22.8501 146.145 22.8905 145.983 23.1332C145.228 24.2659 144.338 23.5378 142.733 20.4229C142.383 19.7351 141.722 18.9665 141.682 18.3597C141.682 18.3327 141.668 18.2787 141.668 18.2518C141.25 15.9863 142.585 16.2696 143.34 15.6897C147.076 12.858 150.932 10.2149 154.748 7.49104L158.295 5.03682C158.888 4.6188 159.468 4.20075 160.034 3.75576L161.167 2.87931C161.693 2.47477 162.219 2.05672 162.772 1.67915C163.945 0.843104 165.253 -0.100813 166.588 0.0879727H166.561C167.276 -0.0199046 168.017 -0.0334024 168.759 0.0744749C169.46 0.195837 170.161 0.411631 170.768 0.789201C171.941 1.4904 172.912 2.5017 173.681 3.76926C174.085 4.37607 174.355 5.13119 174.638 5.85936C174.908 6.57405 175.231 7.3697 175.461 8.01696C176.014 9.72951 176.459 11.4016 176.661 13.0737C176.701 13.1951 176.877 13.3434 176.917 13.5321Z" fill="black"/>
<path d="M123.818 61.0098C126.043 59.2298 133.15 52.0964 137.465 47.3093L144.625 38.7196C146.89 35.7665 149.062 32.7324 151.313 29.7658C151.866 29.0106 152.46 28.296 152.986 27.5274L154.523 25.1945L157.651 20.5558L159.242 18.2499C159.782 17.4948 160.308 16.7127 160.766 15.9036L163.692 11.13C164.933 9.14773 166.821 5.65527 169.518 7.07116C172.336 8.5275 172.687 11.7908 170.57 15.4991C169.261 17.7106 168.061 19.9894 166.619 22.12L162.276 28.4982L160.146 31.7076C159.472 32.7998 158.636 33.7707 157.907 34.8225C156.397 36.8857 154.941 38.9893 153.552 41.1333C145.11 53.4853 134.444 64.0977 123.265 73.9415C113.111 82.7201 101.96 90.2176 90.4842 97.1487L82.2316 101.76C80.8427 102.516 79.5077 103.365 78.0918 104.053L73.8441 106.129L69.583 108.206C68.1536 108.867 66.7512 109.635 65.2679 110.175C62.3282 111.348 59.3885 112.494 56.4219 113.6C53.8868 114.625 51.2303 115.286 48.6008 116.014L40.6853 118.077L32.6485 119.574C29.965 120.046 27.322 120.666 24.6116 120.949C22.0765 121.286 19.1234 122.324 16.3321 122.716C14.0397 123.147 10.156 123.349 7.83665 123.309C6.83879 123.282 5.80051 123.228 4.8431 123.417C0.420129 124.32 -0.806949 123.322 0.487579 119.708C0.770756 118.913 0.339185 117.942 1.35053 117.335C1.39099 117.308 1.47189 117.254 1.51234 117.227C4.51942 114.841 7.78271 115.542 11.0325 115.205C26.85 113.128 42.4248 109.231 57.3119 103.5C59.5908 102.596 61.9102 101.828 64.1486 100.83L70.837 97.7959C75.3544 95.8946 79.5481 93.3325 83.7823 90.9188C86.1286 89.6242 88.1379 87.8038 90.5786 86.6037L90.5381 86.6307C92.8844 85.0529 95.2038 83.4212 97.5771 81.9244C106.369 75.8698 115.188 69.0331 122.78 62.1695C123.077 61.8728 123.387 61.4009 123.818 61.0098Z" fill="black"/>
</svg>
