<svg width="585" height="104" viewBox="0 0 585 104" fill="none" xmlns="http://www.w3.org/2000/svg">
<path d="M0.0556309 28.122C11.0601 51.6348 19.4025 67.0416 25.8102 92.7823C26.0829 93.8742 28.9949 94.8123 32.4678 94.94C35.9219 95.1067 39.5496 94.446 40.8145 93.3851C54.601 81.8182 56.148 69.6653 57.7483 57.8079C59.2927 45.9371 60.9342 34.3612 73.3759 23.8509C67.4641 23.7321 61.5524 23.6132 55.639 23.4943C56.224 24.3485 56.9913 26.1318 57.7626 28.4346C58.5455 30.7507 59.3759 33.6215 60.2563 36.8402C62.0184 43.2732 63.9827 51.0888 66.2197 58.6802C68.4606 66.2711 70.9615 73.6245 73.852 79.2333C75.3103 82.0467 76.8303 84.407 78.647 86.2693C79.5817 87.2124 80.5353 88.0218 82.0007 88.8192C82.7576 89.2244 83.641 89.6336 85.0837 90.0657C86.5003 90.4789 88.7168 90.9679 91.8813 91.1306C93.5089 91.2144 95.3286 91.1665 96.8083 91.0168C98.3053 90.8711 99.4538 90.6506 100.288 90.444C101.949 90.0168 102.589 89.6735 103.092 89.414C103.999 88.8901 104.253 88.5767 104.558 88.2464C105.09 87.6176 105.416 86.9789 105.761 86.1775C106.43 84.5966 107.029 82.4569 107.66 79.8321C108.914 74.5925 110.255 67.4727 112.047 59.8199C113.838 52.1762 116.082 44.0041 119.122 36.7345C120.639 33.1019 122.358 29.6939 124.294 26.7129C126.221 23.7321 128.395 21.1695 130.657 19.2805C123.589 19.1088 116.518 18.9371 109.449 18.761C116.968 30.7859 116.035 44.2903 117.668 57.8479C119.234 70.3749 122.966 82.9988 138.967 94.6007C140.874 95.983 145.699 96.8373 150.367 96.6656C155.051 96.5379 159.194 95.3931 160.128 93.9181C164.087 87.6705 167.211 79.7004 169.814 71.2023C172.41 62.7082 174.465 53.6951 176.184 45.4527C177.904 37.21 179.29 29.7291 180.534 24.3485C181.154 21.6582 181.746 19.4874 182.294 18.0696C182.559 17.3651 182.837 16.8368 182.985 16.6431C183.002 16.621 183.015 16.6034 183.024 16.5946C183.027 16.5902 183.031 16.5858 183.031 16.5858C183.031 16.5858 183.029 16.5858 183.027 16.5902C183.009 16.6034 182.966 16.6563 182.792 16.7796C182.594 16.9073 182.346 17.1097 181.369 17.4796C180.864 17.6602 180.143 17.8935 178.932 18.1312C177.746 18.3646 175.951 18.5936 173.899 18.6288C171.481 18.6773 169.33 18.4527 167.99 18.2192C166.61 17.9815 165.83 17.7482 165.275 17.5676C164.211 17.1978 163.916 16.9953 163.659 16.8544C163.224 16.577 163.199 16.5109 163.158 16.4801C163.151 16.4757 163.149 16.4757 163.149 16.4757C163.149 16.4757 163.153 16.4757 163.159 16.4845C163.169 16.4977 163.188 16.5197 163.212 16.5462C163.259 16.6079 163.327 16.7003 163.404 16.8104C163.717 17.2638 164.171 18.0432 164.702 19.0471C165.769 21.0638 167.165 24.0182 168.764 27.598C171.966 34.7663 175.994 44.462 179.984 54.4836C183.975 64.5046 187.929 74.861 190.987 83.3501C192.516 87.5957 193.819 91.3771 194.79 94.4111C195.761 97.4361 196.397 99.7475 196.582 100.932C196.714 101.777 197.893 102.54 199.734 103.086C201.564 103.636 204.072 103.966 206.632 103.997C209.192 104.032 211.779 103.759 213.744 103.257C215.72 102.755 217.094 102.024 217.441 101.197C229.127 73.2233 229.596 42.3353 236.49 14.0276C229.963 14.1906 223.436 14.3533 216.91 14.5163C239.484 42.6832 241.087 73.8041 246.603 100.276C246.753 100.994 247.734 101.637 249.25 102.113C250.755 102.588 252.816 102.9 254.969 102.971C257.122 103.042 259.35 102.878 261.158 102.513C262.972 102.148 264.38 101.588 265.019 100.91C277.415 87.7583 277.872 71.0705 276.945 54.4656C275.954 37.8881 273.469 21.3895 278.794 9.1973C272.984 9.33373 267.176 9.47036 261.366 9.61128C284.365 33.3618 293.283 59.4636 309.77 82.901C310.248 83.5747 311.528 84.1435 313.244 84.5178C314.957 84.892 317.122 85.0637 319.208 84.9928C321.301 84.927 323.297 84.6186 324.707 84.1385C326.131 83.6635 326.989 83.0247 326.989 82.3331C326.959 70.5685 324.515 51.8857 326.257 34.6078C327.46 22.6754 331.522 11.3813 339.079 3.93557C332.8 4.07649 326.521 4.21731 320.242 4.36262C331.37 12.4292 336.917 20.9713 339.894 30.1122C342.881 39.2531 343.248 48.9929 344.249 59.3708C345.107 68.2921 346.563 77.6834 350.262 87.4849C350.655 88.5238 352.14 89.3701 354.315 89.9729C356.482 90.5807 359.362 90.942 362.293 90.9769C365.228 91.0119 368.186 90.7214 370.496 90.1625C372.82 89.6116 374.51 88.8063 375.066 87.925C384.585 72.8889 391.924 52.4187 402.051 34.9205C405.408 29.0995 409.09 23.622 412.915 18.8094C406.224 18.8578 399.532 18.9063 392.837 18.9503C405.96 35.1186 402.47 51.9476 404.176 69.2252C404.888 76.2393 406.552 83.3152 410.25 90.3731C410.819 91.452 412.493 92.3023 414.852 92.8831C417.196 93.469 420.244 93.7813 423.267 93.7504C426.292 93.7195 429.263 93.3452 431.476 92.7115C433.702 92.0817 435.188 91.2015 435.457 90.3073C437.264 84.3102 438.831 76.5257 440.635 68.0715C442.442 59.6223 444.587 50.5076 447.697 41.9214C451.928 29.8436 456.803 18.7126 462.068 12.0462C455.864 11.9362 449.66 11.8304 443.456 11.7247C452.952 36.664 457.619 64.5136 458.48 89.2284C458.51 90.1137 459.712 90.95 461.665 91.5538C463.602 92.1656 466.309 92.5308 469.078 92.5668C471.847 92.6057 474.649 92.3113 476.752 91.7564C478.867 91.2055 480.297 90.4041 480.593 89.4709C481.854 85.4948 486.973 68.6883 492.085 53.246C494.643 45.532 497.194 38.1568 499.277 32.939C500.314 30.3368 501.25 28.2585 501.952 27.0388C502.124 26.735 502.28 26.4885 502.401 26.3211C502.459 26.2375 502.511 26.1759 502.54 26.1407C502.557 26.123 502.566 26.1142 502.566 26.1142C502.566 26.1142 502.56 26.1229 502.537 26.145C502.482 26.1934 502.401 26.2815 502.04 26.5104C501.848 26.6249 501.585 26.7747 501.065 26.9948C500.525 27.2105 499.765 27.5143 498.085 27.871C497.243 28.0472 496.141 28.2276 494.744 28.3554C493.362 28.483 491.672 28.5491 490.012 28.4918C488.348 28.4434 486.771 28.2805 485.54 28.0824C484.295 27.8798 483.369 27.6509 482.68 27.444C481.305 27.0256 480.749 26.7085 480.356 26.4796C479.976 26.2462 479.803 26.0922 479.68 25.9777C479.67 25.9688 479.664 25.9644 479.664 25.9644C479.67 25.9732 479.686 25.9909 479.706 26.0129C479.745 26.0613 479.807 26.1406 479.878 26.2331C480.024 26.4268 480.21 26.691 480.427 27.0168C480.863 27.6729 481.409 28.558 482.033 29.6279C483.287 31.759 484.857 34.6211 486.58 37.9146C490.025 44.5017 494.084 52.8458 497.48 60.7401C499.983 66.5655 502.118 72.1624 503.337 76.5965C503.948 78.8151 504.325 80.7443 504.419 82.2273C504.464 82.9679 504.438 83.5926 504.357 84.0637C504.282 84.5308 504.113 84.8521 504.091 84.8701C512.326 85.1954 520.558 85.5208 528.791 85.8471C529.642 73.355 535.07 60.789 540.26 48.1035C543.711 39.6538 547.66 31.2086 551.781 22.7589C544.407 22.7149 537.033 22.6753 529.658 22.6357C534.221 33.2428 538.918 43.8455 543.923 54.4436C551.284 70.0306 558.548 85.6885 568.385 101.241C570.153 104.037 586.452 103.125 584.895 100.32C576.328 84.8651 570.283 69.2602 564.004 53.6163C559.753 43.0222 555.766 32.4151 551.833 21.7991C551.524 20.9669 550.185 20.2095 548.226 19.668C546.272 19.1263 543.679 18.8094 541.046 18.7873C538.414 18.7653 535.765 19.0427 533.724 19.5491C531.67 20.0598 530.201 20.7907 529.717 21.6803C525.082 30.1386 520.649 38.6235 516.762 47.1436C511.007 59.776 504.949 72.5845 503.762 85.6575C503.671 86.6446 504.835 87.5727 506.834 88.2733C508.819 88.9779 511.666 89.449 514.676 89.5637C517.685 89.6865 520.828 89.453 523.327 88.925C525.84 88.4051 527.731 87.5957 528.459 86.6356C529.008 85.909 529.226 85.2443 529.379 84.5038C529.522 83.7733 529.558 82.9759 529.522 82.0996C529.444 80.3561 529.06 78.2912 528.456 75.9618C527.244 71.3171 525.118 65.6324 522.583 59.7281C519.154 51.7228 514.965 43.3305 511.354 36.6685C509.551 33.3397 507.893 30.4468 506.541 28.2408C505.868 27.1357 505.27 26.2066 504.757 25.4625C504.5 25.0927 504.266 24.7668 504.039 24.4807C503.808 24.1857 503.613 23.9478 503.301 23.6439C503.129 23.4811 502.904 23.2917 502.475 23.0276C502.027 22.7678 501.416 22.4243 499.989 21.9884C499.271 21.7727 498.319 21.5393 497.045 21.3323C495.784 21.1298 494.178 20.9625 492.488 20.9141C490.798 20.8612 489.079 20.9229 487.665 21.055C486.238 21.1871 485.104 21.372 484.233 21.5525C482.491 21.9224 481.669 22.2438 481.064 22.486C480.479 22.737 480.155 22.9219 479.895 23.076C479.397 23.3842 479.176 23.5868 478.975 23.7673C478.601 24.1284 478.39 24.4101 478.165 24.7272C477.951 25.0442 477.749 25.3833 477.545 25.7575C476.739 27.2458 475.855 29.3857 474.873 32.054C472.914 37.3906 470.616 44.8011 468.37 52.5554C463.879 68.0546 459.585 84.914 458.523 88.8631C465.894 88.943 473.265 89.0218 480.635 89.1057C478.556 64.1883 472.472 36.2018 462.257 11.0247C461.964 10.3025 460.856 9.67724 459.247 9.22814C457.645 8.77464 455.523 8.50158 453.352 8.47075C451.181 8.43112 448.974 8.63811 447.229 9.03442C445.477 9.43073 444.161 10.0164 443.641 10.7032C438.161 17.9376 433.569 29.1303 429.299 41.3094C426.367 49.9572 422.958 59.0585 419.581 67.4597C416.204 75.861 412.961 83.5747 410.224 89.3921C418.626 89.3701 427.03 89.3472 435.431 89.3302C433.088 82.6415 432.315 75.852 431.619 68.9607C429.864 52.0265 429.13 34.4273 412.802 17.2859C412.057 16.5065 410.624 15.9209 408.768 15.5202C406.919 15.1195 404.634 14.9125 402.372 14.9478C400.114 14.9742 397.894 15.2384 396.165 15.6875C394.429 16.1322 393.162 16.7575 392.723 17.4312C389.447 22.4288 386.288 28.0163 382.954 33.89C372.979 51.5159 361.549 71.832 350.483 86.3092C358.751 86.4549 367.019 86.6046 375.287 86.7493C372.944 77.2083 372.31 68.0146 371.289 59.1024C370.113 48.7463 368.585 38.7732 364.074 29.2008C359.56 19.6328 352.017 10.4654 338.572 1.81759C336.651 0.584744 332.484 -0.119656 328.445 0.0167728C324.395 0.118071 320.742 1.05151 319.731 2.24484C312.507 10.7824 310.154 22.2966 308.941 34.4448C307.19 51.9696 309.604 70.7532 309.575 82.3331C315.315 82.1485 321.054 81.9589 326.79 81.7702C310.612 58.7371 301.882 32.4855 278.508 8.05248C277.328 6.81963 273.29 5.97871 269.259 6.09318C265.219 6.16803 261.641 7.18511 261.079 8.46636C255.371 21.4601 257.872 38.0642 258.643 54.5584C259.48 71.0256 258.482 87.3791 246.964 99.2854C253.103 99.497 259.242 99.7085 265.381 99.9151C260.153 73.6374 259.112 42.19 236.236 13.0721C235.657 12.3367 234.232 11.7159 232.34 11.3064C230.459 10.8925 228.093 10.6943 225.786 10.7516C223.476 10.8044 221.244 11.1171 219.599 11.619C217.943 12.1166 216.851 12.7947 216.656 13.5608C209.358 42.1504 208.458 72.9638 196.658 100.364C203.611 100.452 210.564 100.541 217.517 100.629C217.303 99.1976 216.677 96.8722 215.727 93.7903C214.778 90.7125 213.509 86.913 212.021 82.6465C209.043 74.1175 205.19 63.7431 201.288 53.6911C197.387 43.643 193.441 33.9253 190.276 26.6998C188.693 23.0891 187.31 20.1039 186.208 17.9816C185.655 16.9204 185.18 16.0839 184.742 15.4366C184.513 15.1063 184.32 14.8377 184 14.5119C183.818 14.3402 183.663 14.1684 183.113 13.825C182.797 13.6444 182.446 13.42 181.33 13.0325C180.75 12.8431 179.945 12.6009 178.54 12.3588C177.175 12.121 175.001 11.8919 172.561 11.9448C170.434 11.9801 168.565 12.2179 167.304 12.4645C166.018 12.7155 165.222 12.9708 164.643 13.1822C163.519 13.6048 163.122 13.8867 162.776 14.1201C162.158 14.5736 161.942 14.8641 161.698 15.1812C161.255 15.7932 160.946 16.4493 160.618 17.2726C159.98 18.9018 159.366 21.1254 158.713 23.8641C157.408 29.3284 155.973 36.7962 154.206 45.0124C152.442 53.2241 150.349 62.1802 147.746 70.5596C145.15 78.9389 142.022 86.7583 138.29 92.6107C145.343 92.3861 152.396 92.1566 159.451 91.932C145.254 81.6645 141.436 69.8769 139.956 57.5924C138.293 44.3035 139.34 30.4953 131.128 17.4796C130.183 15.9781 125.911 14.8289 121.151 14.7409C116.404 14.5999 111.601 15.5334 109.919 16.9557C107.081 19.3598 104.769 22.2086 102.731 25.4096C100.701 28.6064 98.9735 32.1553 97.4694 35.898C94.4625 43.3833 92.3532 51.6612 90.713 59.3708C89.074 67.0815 87.9053 74.2313 86.8026 79.388C86.255 81.9589 85.7128 84.0457 85.1824 85.3801C84.9286 86.0368 84.6391 86.5208 84.5315 86.6446C84.5201 86.6575 84.5201 86.6615 84.5172 86.6615C84.5201 86.6615 84.5302 86.6485 84.5559 86.6266C84.6118 86.5827 84.708 86.4988 85.0148 86.3272C85.3489 86.1555 85.8204 85.8821 87.3089 85.4988C88.0574 85.3142 89.1198 85.1076 90.5294 84.9669C91.9217 84.8252 93.6539 84.7813 95.1937 84.8611C97.4765 84.9799 98.8214 85.3142 99.3778 85.4819C99.6732 85.5697 99.8208 85.6266 99.8926 85.6575C99.9283 85.6715 99.9443 85.6795 99.9443 85.6795C99.9443 85.6795 99.9326 85.6755 99.9098 85.6665C99.693 85.5657 99.0063 85.0946 98.341 84.425C96.9546 83.0647 95.4261 80.88 93.9821 78.2253C91.0698 72.8979 88.3528 65.6234 85.8851 58.0984C83.4132 50.5692 81.1778 42.7757 79.1716 36.3162C78.168 33.0844 77.2216 30.187 76.3269 27.8094C75.4221 25.4184 74.6105 23.5911 73.7044 22.3054C72.824 21.0593 69.2048 20.1259 65.233 20.0687C61.2683 19.9762 57.3082 20.7688 55.9676 21.9532C42.7385 33.626 41.821 45.7653 40.7154 57.6273C39.6685 69.4987 38.4771 81.0916 26.2392 91.7783C31.2403 91.9809 36.2417 92.1835 41.2432 92.3861C33.6122 66.4907 24.4309 50.9479 12.3507 27.5541C11.2753 25.4713 -0.921188 26.035 0.0556309 28.122Z" fill="#EB5127"/>
</svg>
